<svg enable-background="new 0 0 52 52" height="52" viewBox="0 0 52 52" width="52" xmlns="http://www.w3.org/2000/svg"><g fill="#fff"><path d="m8 10.5c0-.8-.7-1.5-1.5-1.5h-3c-.8 0-1.5.7-1.5 1.5v3c0 .8.7 1.5 1.5 1.5h3c.8 0 1.5-.7 1.5-1.5z"/><path d="m50 10.5c0-.8-.7-1.5-1.5-1.5h-35c-.8 0-1.5.7-1.5 1.5v3c0 .8.7 1.5 1.5 1.5h35c.8 0 1.5-.7 1.5-1.5z"/><path d="m8 24.5c0-.8-.7-1.5-1.5-1.5h-3c-.8 0-1.5.7-1.5 1.5v3c0 .8.7 1.5 1.5 1.5h3c.8 0 1.5-.7 1.5-1.5z"/><path d="m46 24.5c0-.8-.7-1.5-1.5-1.5h-31c-.8 0-1.5.7-1.5 1.5v3c0 .8.7 1.5 1.5 1.5h31c.8 0 1.5-.7 1.5-1.5z"/><path d="m8 38.5c0-.8-.7-1.5-1.5-1.5h-3c-.8 0-1.5.7-1.5 1.5v3c0 .8.7 1.5 1.5 1.5h3c.8 0 1.5-.7 1.5-1.5z"/><path d="m50 38.5c0-.8-.7-1.5-1.5-1.5h-35c-.8 0-1.5.7-1.5 1.5v3c0 .8.7 1.5 1.5 1.5h35c.8 0 1.5-.7 1.5-1.5z"/></g></svg>