<svg
					width="77"
					height="16"
					viewBox="0 0 77 16"
					fill="none"
					xmlns="http://www.w3.org/2000/svg"
				>
					<g clip-path="url(#clip0_337_4840)">
						<path
							d="M26.6012 9.25739H24.9107C24.5398 9.25739 24.269 9.2052 24.1281 9.11244C23.9873 9.01967 23.9387 8.87472 23.9387 8.64425C23.927 8.55719 23.9381 8.46881 23.9711 8.38656C24.0041 8.30431 24.0579 8.23062 24.1281 8.17172C24.3003 8.04707 24.5273 8.02677 24.9107 8.02677H28.5264V6.8208H24.9264C23.4864 6.8208 22.6271 7.50351 22.6271 8.64715C22.6271 9.7908 23.4864 10.475 24.9264 10.475H26.6168C26.8454 10.475 27.1913 10.475 27.3994 10.6199C27.5278 10.7141 27.592 10.8866 27.592 11.1345C27.592 11.3823 27.5388 11.507 27.4214 11.5983C27.2007 11.7693 26.7702 11.8549 26.1426 11.8549C23.812 11.8549 22.7852 11.204 22.7758 11.1982L22.6318 11.104V12.3462L22.6662 12.3709C22.7006 12.397 23.5568 13.0058 26.1207 13.0058C27.9379 13.0058 28.8989 12.3593 28.8989 11.1345C28.9005 9.96329 28.0412 9.25739 26.6012 9.25739Z"
							fill="#00295F"
						/>
						<path d="M38.5908 6.80933H37.3198V13.0001H38.5908V6.80933Z" fill="#00295F" />
						<path d="M41.1421 6.80933H39.8711V13.0001H41.1421V6.80933Z" fill="#00295F" />
						<path
							d="M49.9575 8.48496C49.5693 8.19506 48.7335 8.10229 48.134 8.10229C47.583 8.10229 46.8348 8.21391 46.4357 8.45597C46.0522 8.21391 45.3025 8.10229 44.7421 8.10229C44.1004 8.10229 43.2693 8.2342 42.9202 8.48496C42.5712 8.73572 42.3677 9.14882 42.3677 9.67499V13.0074H43.6371V9.67354C43.6352 9.61687 43.6497 9.56076 43.6792 9.51106C43.7086 9.46135 43.7519 9.41986 43.8046 9.39089C43.9736 9.28797 44.4166 9.24594 44.7437 9.24594C45.3228 9.24594 45.8002 9.27783 45.8002 9.66774V13.0074H47.0712V9.67354C47.0712 9.31986 47.4594 9.25174 48.1293 9.25174C48.4955 9.25174 48.9354 9.29812 49.0684 9.38799C49.1214 9.41868 49.1651 9.46143 49.1953 9.51218C49.2254 9.56292 49.241 9.61997 49.2406 9.67788V13.0074H50.51V9.67354C50.5084 9.15317 50.3237 8.75311 49.9575 8.48496Z"
							fill="#00295F"
						/>
						<path
							d="M55.5562 8.10229H51.9953V9.25319H55.5281C55.9162 9.25319 56.1542 9.27058 56.3107 9.36335C56.361 9.39926 56.4014 9.4457 56.4286 9.49886C56.4558 9.55202 56.469 9.61039 56.4672 9.66919H53.4933C52.0564 9.66919 51.3865 10.1983 51.3865 11.3346C51.3865 12.3928 52.191 13.0001 53.5934 13.0001H55.5562C58.0089 13.0001 57.7616 12.5522 57.7616 11.4274V9.67354C57.7616 8.61686 57.0432 8.10229 55.5562 8.10229ZM56.4954 11.4274C56.4954 11.5332 56.5079 11.6898 56.3749 11.7738C56.2418 11.8579 55.8865 11.8492 55.5312 11.8492H53.6373C52.9799 11.8492 52.6731 11.6811 52.6731 11.3187C52.6731 10.8563 53.1427 10.8172 53.6373 10.8172H56.4922L56.4954 11.4274Z"
							fill="#00295F"
						/>
						<path
							d="M60.9845 6.89485L60.9829 6.80933H59.7119V8.10227H58.3925V9.25171H59.7119V12.916L59.7135 13.0001H60.9845V9.25171H62.304V8.10227H60.9845V6.89485Z"
							fill="#00295F"
						/>
						<path
							d="M35.4948 8.48496C35.1458 8.2313 34.587 8.10229 33.8325 8.10229H32.1797C30.7162 8.10229 29.9743 8.63136 29.9743 9.67499V11.4651C29.9734 11.6672 30.0157 11.8675 30.0986 12.0545C30.1815 12.2415 30.3035 12.4115 30.4574 12.5548C30.6114 12.698 30.7944 12.8118 30.9959 12.8894C31.1975 12.9671 31.4136 13.0072 31.6318 13.0074H35.7359V11.8739H31.8588C31.6958 11.8735 31.5395 11.8133 31.4243 11.7066C31.309 11.5998 31.2441 11.4552 31.2437 11.3042V11.1897H35.4291C35.6701 11.1897 35.8298 11.1419 35.9205 11.0448C36.0127 10.9166 36.0546 10.7632 36.0395 10.6099V9.67354C36.0395 9.15027 35.8564 8.75021 35.4948 8.48496ZM31.2437 9.67354C31.2463 9.61515 31.2655 9.55844 31.2993 9.50908C31.3331 9.45973 31.3803 9.41947 31.4362 9.39234C31.6746 9.28062 31.9412 9.23054 32.2078 9.24739H33.8044C34.0728 9.22897 34.3419 9.27333 34.587 9.37639C34.6432 9.40448 34.6899 9.44643 34.722 9.4976C34.754 9.54877 34.7701 9.60715 34.7685 9.66629V10.0403H31.2437V9.67354Z"
							fill="#00295F"
						/>
						<path
							d="M68.4553 8.48496C68.1062 8.2313 67.5474 8.10229 66.793 8.10229H65.1401C63.6766 8.10229 62.9347 8.63136 62.9347 9.67499V11.4651C62.9339 11.6672 62.9761 11.8675 63.059 12.0545C63.142 12.2415 63.2639 12.4115 63.4179 12.5548C63.5719 12.698 63.7549 12.8118 63.9564 12.8894C64.1579 12.9671 64.374 13.0072 64.5923 13.0074H68.6963V11.8739H64.8192C64.6562 11.8735 64.5 11.8133 64.3847 11.7066C64.2695 11.5998 64.2045 11.4552 64.2041 11.3042V11.1897H68.3895C68.6306 11.1897 68.7902 11.1419 68.881 11.0448C68.9731 10.9166 69.0151 10.7632 69 10.6099V9.67354C69 9.15027 68.8168 8.75021 68.4553 8.48496ZM64.2041 10.049V9.67354C64.2068 9.61515 64.2259 9.55844 64.2597 9.50908C64.2935 9.45973 64.3407 9.41947 64.3966 9.39234C64.6351 9.28062 64.9017 9.23054 65.1683 9.24739H66.7648C67.0332 9.22879 67.3024 9.27316 67.5474 9.37639C67.6036 9.40448 67.6504 9.44643 67.6824 9.4976C67.7145 9.54877 67.7306 9.60715 67.729 9.66629V10.0403L64.2041 10.049Z"
							fill="#00295F"
						/>
						<path
							d="M20.5234 4.19586L20.5109 4.18571C20.0131 3.80739 18.2162 3.05801 16.2847 3.00293H16.2362H15.6524H15.6023C13.6677 3.05801 11.8708 3.80739 11.3762 4.18571L11.3637 4.19586V5.69027C11.3635 5.69599 11.3645 5.70168 11.3666 5.70703C11.3688 5.71238 11.3721 5.71728 11.3763 5.72145C11.3805 5.72563 11.3856 5.72899 11.3912 5.73135C11.3968 5.73371 11.4029 5.73502 11.4091 5.73521C11.4167 5.73743 11.4249 5.73743 11.4325 5.73521L11.4967 5.70042C11.959 5.42536 12.4498 5.19374 12.9618 5.00902C13.2216 4.9177 13.5018 4.83363 13.7976 4.75971L14.0073 4.71042C14.0465 4.70173 14.0872 4.69013 14.1279 4.68288C14.6199 4.58545 15.1211 4.53254 15.6242 4.52489H15.9467H16.2691C16.7722 4.53237 17.2734 4.58529 17.7654 4.68288C17.8061 4.68288 17.8468 4.70173 17.8875 4.71042L18.0973 4.75971C18.3915 4.83363 18.6733 4.9177 18.9315 5.00902C19.4438 5.19309 19.9347 5.42474 20.3966 5.70042L20.4608 5.73521C20.4685 5.73705 20.4765 5.73705 20.4842 5.73521C20.4915 5.73666 20.4989 5.73666 20.5062 5.73521C20.5134 5.73116 20.5194 5.72541 20.5235 5.71854C20.5277 5.71167 20.5298 5.70393 20.5296 5.69607L20.5234 4.19586Z"
							fill="#FF5B00"
						/>
						<path
							d="M20.5234 6.70341L20.5109 6.69326C20.0131 6.31495 18.2162 5.56411 16.2847 5.50903H15.6023C13.6677 5.56411 11.8708 6.31495 11.3762 6.69326L11.3637 6.70341V8.19783C11.3635 8.20354 11.3645 8.20923 11.3666 8.21458C11.3688 8.21993 11.3721 8.22484 11.3763 8.22901C11.3805 8.23318 11.3856 8.23654 11.3912 8.2389C11.3968 8.24126 11.4029 8.24258 11.4091 8.24276C11.4167 8.24499 11.4249 8.24499 11.4325 8.24276L11.4967 8.20798C11.959 7.93247 12.4497 7.70037 12.9618 7.51512C13.2216 7.42525 13.5018 7.34118 13.7976 7.26726L13.9995 7.20928C14.0386 7.20058 14.0793 7.18899 14.12 7.18174C14.6121 7.08431 15.1133 7.0314 15.6164 7.02375H15.9388H16.2613C16.7644 7.03123 17.2656 7.08415 17.7576 7.18174L17.8797 7.20783L18.0895 7.25856C18.3837 7.33249 18.6655 7.41656 18.9237 7.50643C19.436 7.69107 19.9269 7.9232 20.3888 8.19928L20.4529 8.23407C20.4606 8.23591 20.4687 8.23591 20.4764 8.23407C20.4836 8.23552 20.4911 8.23552 20.4983 8.23407C20.5056 8.23001 20.5116 8.22427 20.5157 8.2174C20.5198 8.21053 20.5219 8.20279 20.5218 8.19493L20.5234 6.70341Z"
							fill="#FF5B00"
						/>
						<path
							d="M7.99994 11.8042L8.01246 11.8144C8.5102 12.1927 10.3071 12.9435 12.2386 12.9986H12.921C14.8556 12.9435 16.6525 12.1927 17.1471 11.8144L17.1596 11.8042V10.3112C17.1599 10.3034 17.1579 10.2956 17.1538 10.2887C17.1496 10.2818 17.1435 10.276 17.1362 10.2721C17.129 10.27 17.1214 10.27 17.1143 10.2721C17.1066 10.27 17.0984 10.27 17.0908 10.2721L17.0266 10.3069C16.5644 10.5824 16.0736 10.8145 15.5615 10.9997C15.3033 11.0896 15.0215 11.1751 14.7257 11.2491L14.5175 11.2983L14.3955 11.3259C13.9033 11.4229 13.4022 11.4753 12.8991 11.4824L12.5767 11.4897L12.2542 11.4824C11.7511 11.4754 11.25 11.423 10.7579 11.3259L10.6358 11.2983L10.426 11.2491C10.1318 11.1751 9.85004 11.0896 9.59177 10.9997C9.07975 10.8145 8.58897 10.5824 8.12672 10.3069L8.06255 10.2721C8.05489 10.27 8.04673 10.27 8.03907 10.2721C8.03194 10.27 8.02428 10.27 8.01716 10.2721C8.00978 10.276 8.00369 10.2818 7.99956 10.2887C7.99542 10.2956 7.99339 10.3034 7.99368 10.3112L7.99994 11.8042Z"
							fill="#00295F"
						/>
						<path
							d="M8.00004 9.29665L8.01256 9.30679C8.5103 9.68511 10.3072 10.4359 12.2387 10.491H12.9211C14.8557 10.4359 16.6526 9.68511 17.1472 9.30679L17.1597 9.29665V7.80368C17.1597 7.79585 17.1575 7.78815 17.1534 7.78131C17.1493 7.77447 17.1434 7.7687 17.1363 7.76454C17.1291 7.76243 17.1215 7.76243 17.1143 7.76454C17.1067 7.76241 17.0985 7.76241 17.0909 7.76454L17.0267 7.80078C16.5641 8.07529 16.0734 8.30688 15.5616 8.49218C15.3034 8.58205 15.0216 8.66757 14.7258 8.7415L14.5176 8.79078L14.3955 8.81832C13.9034 8.9153 13.4023 8.96772 12.8992 8.97486H12.5768H12.2543C11.7512 8.96788 11.2501 8.91545 10.758 8.81832L10.6359 8.79078L10.4261 8.7415C10.1319 8.66757 9.85013 8.58205 9.59187 8.49218C9.08016 8.30688 8.58944 8.07529 8.12682 7.80078L8.06264 7.76454C8.05499 7.76241 8.04682 7.76241 8.03917 7.76454C8.03204 7.76243 8.02438 7.76243 8.01725 7.76454C8.01009 7.7687 8.00418 7.77447 8.00007 7.78131C7.99597 7.78815 7.9938 7.79585 7.99377 7.80368L8.00004 9.29665Z"
							fill="#00295F"
						/>
					</g>
					<defs>
						<clipPath id="clip0_337_4840">
							<rect width="61" height="10" fill="white" transform="translate(8 3)" />
						</clipPath>
					</defs>
				</svg>